<?xml version="1.0" encoding="UTF-8"?>
<!DOCTYPE svg PUBLIC "-//W3C//DTD SVG 1.1//EN" "http://www.w3.org/Graphics/SVG/1.1/DTD/svg11.dtd">
<!-- Creator: CorelDRAW X7 -->
<svg xmlns="http://www.w3.org/2000/svg" xml:space="preserve" width="100%" height="100%" version="1.1" style="shape-rendering:geometricPrecision; text-rendering:geometricPrecision; image-rendering:optimizeQuality; fill-rule:evenodd; clip-rule:evenodd"
viewBox="46 1612 6194 1100"
 xmlns:xlink="http://www.w3.org/1999/xlink">
 <defs>
  <style type="text/css">
   <![CDATA[
    .fil0 {fill:black}
    .fil2 {fill:#454545}
    .fil3 {fill:#BC000F}
    .fil1 {fill:#FF0009}
    .fil4 {fill:black;fill-rule:nonzero}
    .fil5 {fill:#454545;fill-rule:nonzero}
   ]]>
  </style>
   <mask id="id0">
  <linearGradient id="id1" gradientUnits="userSpaceOnUse" x1="3413.38" y1="1864.81" x2="3413.38" y2="2455.22">
   <stop offset="0" style="stop-opacity:1; stop-color:white"/>
   <stop offset="1" style="stop-opacity:0; stop-color:white"/>
  </linearGradient>
    <rect style="fill:url(#id1)" x="2883" y="1632" width="1060" height="1055"/>
   </mask>
   <mask id="id2">
  <linearGradient id="id3" gradientUnits="userSpaceOnUse" x1="5540.55" y1="1871.76" x2="5540.55" y2="2445.77">
   <stop offset="0" style="stop-opacity:1; stop-color:white"/>
   <stop offset="1" style="stop-opacity:0; stop-color:white"/>
  </linearGradient>
    <rect style="fill:url(#id3)" x="5024" y="1663" width="1034" height="991"/>
   </mask>
   <mask id="id4">
  <linearGradient id="id5" gradientUnits="userSpaceOnUse" x1="2103.55" y1="1861.87" x2="2103.55" y2="2455.67">
   <stop offset="0" style="stop-opacity:1; stop-color:white"/>
   <stop offset="1" style="stop-opacity:0; stop-color:white"/>
  </linearGradient>
    <rect style="fill:url(#id5)" x="1365" y="1663" width="1477" height="991"/>
   </mask>
   <mask id="id6">
  <linearGradient id="id7" gradientUnits="userSpaceOnUse" x1="785.65" y1="1876.24" x2="785.65" y2="2443.83">
   <stop offset="0" style="stop-opacity:1; stop-color:white"/>
   <stop offset="1" style="stop-opacity:0; stop-color:white"/>
  </linearGradient>
    <rect style="fill:url(#id7)" x="259" y="1634" width="1052" height="1052"/>
   </mask>
   <mask id="id8">
  <linearGradient id="id9" gradientUnits="userSpaceOnUse" x1="4399.9" y1="2449.96" x2="4408.17" y2="1867.57">
   <stop offset="0" style="stop-opacity:1; stop-color:white"/>
   <stop offset="1" style="stop-opacity:0; stop-color:white"/>
  </linearGradient>
    <rect style="fill:url(#id9)" x="3887" y="1663" width="1034" height="991"/>
   </mask>
   <mask id="id10">
  <linearGradient id="id11" gradientUnits="userSpaceOnUse" x1="6159.63" y1="1703.64" x2="6158.88" y2="1752.38">
   <stop offset="0" style="stop-opacity:1; stop-color:white"/>
   <stop offset="1" style="stop-opacity:0; stop-color:white"/>
  </linearGradient>
    <rect style="fill:url(#id11)" x="6095" y="1664" width="128" height="128"/>
   </mask>
 </defs>
 <g id="Layer_x0020_1">
  <metadata id="CorelCorpID_0Corel-Layer"/>
  <path class="fil0" d="M3411 1633c312,0 474,227 532,448l-486 165 -50 -165 279 -94c-57,-92 -159,-152 -275,-152 -179,0 -325,146 -325,325 0,180 146,325 325,325 100,0 190,-45 249,-116l235 0c-81,187 -267,318 -484,318 -291,0 -527,-236 -527,-527 0,-291 236,-527 527,-527z"/>
  <polygon class="fil0" points="5024,2654 5381,2144 5039,1664 5359,1664 5534,1936 5719,1664 6026,1664 5691,2133 6057,2654 5736,2654 5534,2347 5331,2654 "/>
  <polygon class="fil0" points="1679,2654 1366,1664 1620,1664 1806,2313 1976,1664 2229,1664 2394,2313 2583,1664 2841,1664 2523,2654 2272,2654 2101,2017 1934,2654 "/>
  <path class="fil0" d="M786 1634c290,0 525,236 525,526 0,290 -235,526 -525,526 -291,0 -526,-236 -526,-526 0,-290 235,-526 526,-526zm0 202c179,0 324,145 324,324 0,179 -145,324 -324,324 -179,0 -324,-145 -324,-324 0,-179 145,-324 324,-324z"/>
  <polygon class="fil1" points="3888,2654 4245,2144 3903,1664 4222,1664 4398,1936 4582,1664 4890,1664 4554,2133 4920,2654 4599,2654 4398,2347 4194,2654 "/>
  <path class="fil2" style="mask:url(#id0)" d="M3411 1633c312,0 474,227 532,448l-486 165 -50 -165 279 -94c-57,-92 -159,-152 -275,-152 -179,0 -325,146 -325,325 0,180 146,325 325,325 100,0 190,-45 249,-116l235 0c-81,187 -267,318 -484,318 -291,0 -527,-236 -527,-527 0,-291 236,-527 527,-527z"/>
  <polygon class="fil2" style="mask:url(#id2)" points="5024,2654 5381,2144 5039,1664 5359,1664 5534,1936 5719,1664 6026,1664 5691,2133 6057,2654 5736,2654 5534,2347 5331,2654 "/>
  <polygon class="fil2" style="mask:url(#id4)" points="1679,2654 1366,1664 1620,1664 1806,2313 1976,1664 2229,1664 2394,2313 2583,1664 2841,1664 2523,2654 2272,2654 2101,2017 1934,2654 "/>
  <path class="fil2" style="mask:url(#id6)" d="M786 1634c290,0 525,236 525,526 0,290 -235,526 -525,526 -291,0 -526,-236 -526,-526 0,-290 235,-526 526,-526zm0 202c179,0 324,145 324,324 0,179 -145,324 -324,324 -179,0 -324,-145 -324,-324 0,-179 145,-324 324,-324z"/>
  <polygon class="fil3" style="mask:url(#id8)" points="3888,2654 4245,2144 3903,1664 4222,1664 4398,1936 4582,1664 4890,1664 4554,2133 4920,2654 4599,2654 4398,2347 4194,2654 "/>
  <path class="fil4" d="M6159 1665c11,0 21,3 31,8 10,5 18,13 24,23 6,10 8,21 8,32 0,11 -2,22 -8,31 -6,10 -13,18 -23,24 -10,5 -21,8 -32,8 -11,0 -21,-3 -31,-8 -10,-6 -18,-14 -24,-24 -5,-9 -8,-20 -8,-31 0,-11 3,-22 9,-32 5,-10 13,-18 23,-23 10,-5 20,-8 31,-8zm0 12c-8,0 -17,2 -25,7 -8,4 -14,10 -18,18 -5,9 -7,17 -7,26 0,9 2,17 6,25 5,8 11,15 19,19 8,5 17,7 25,7 9,0 18,-2 26,-7 8,-4 14,-11 18,-19 5,-8 7,-16 7,-25 0,-9 -2,-17 -7,-26 -4,-8 -11,-14 -19,-18 -8,-5 -16,-7 -25,-7zm-28 85l0 -67 13 0c13,0 20,0 22,0 4,0 8,1 10,3 3,1 5,3 7,6 1,3 2,6 2,10 0,4 -1,9 -5,12 -3,4 -7,6 -13,6 2,1 4,2 5,3 1,1 2,3 4,5 1,1 2,4 5,8l8 14 -17 0 -5 -11c-4,-7 -7,-12 -10,-14 -2,-2 -5,-3 -9,-3l-4 0 0 28 -13 0zm13 -38l6 0c8,0 13,-1 14,-1 2,-1 4,-2 5,-3 1,-2 2,-4 2,-6 0,-1 -1,-3 -2,-4 -1,-2 -3,-3 -5,-4 -2,0 -6,-1 -14,-1l-6 0 0 19z"/>
  <path class="fil5" style="mask:url(#id10)" d="M6159 1665c11,0 21,3 31,8 10,5 18,13 24,23 6,10 8,21 8,32 0,11 -2,22 -8,31 -6,10 -13,18 -23,24 -10,5 -21,8 -32,8 -11,0 -21,-3 -31,-8 -10,-6 -18,-14 -24,-24 -5,-9 -8,-20 -8,-31 0,-11 3,-22 9,-32 5,-10 13,-18 23,-23 10,-5 20,-8 31,-8zm0 12c-8,0 -17,2 -25,7 -8,4 -14,10 -18,18 -5,9 -7,17 -7,26 0,9 2,17 6,25 5,8 11,15 19,19 8,5 17,7 25,7 9,0 18,-2 26,-7 8,-4 14,-11 18,-19 5,-8 7,-16 7,-25 0,-9 -2,-17 -7,-26 -4,-8 -11,-14 -19,-18 -8,-5 -16,-7 -25,-7zm-28 85l0 -67 13 0c13,0 20,0 22,0 4,0 8,1 10,3 3,1 5,3 7,6 1,3 2,6 2,10 0,4 -1,9 -5,12 -3,4 -7,6 -13,6 2,1 4,2 5,3 1,1 2,3 4,5 1,1 2,4 5,8l8 14 -17 0 -5 -11c-4,-7 -7,-12 -10,-14 -2,-2 -5,-3 -9,-3l-4 0 0 28 -13 0zm13 -38l6 0c8,0 13,-1 14,-1 2,-1 4,-2 5,-3 1,-2 2,-4 2,-6 0,-1 -1,-3 -2,-4 -1,-2 -3,-3 -5,-4 -2,0 -6,-1 -14,-1l-6 0 0 19z"/>
 </g>
</svg>
